<svg id="Слой_1" data-name="Слой 1" xmlns="http://www.w3.org/2000/svg" viewBox="0 0 500 377.8"><defs><clipPath id="clip-path"><path class="cls-1" d="M144.39 102.91s14.05-21 37.3-21.69 41.48 14 41.48 14-20.87 19.41-39.3 19.92-39.48-12.23-39.48-12.23z"/></clipPath><clipPath id="clip-path-2"><path class="cls-1" d="M289.13 101.1s15-20.42 38.21-20 40.83 15.83 40.83 15.83-21.69 18.48-40.12 18.19-38.92-14.02-38.92-14.02z"/></clipPath><style>.cls-1{fill:none}.cls-3{fill:#fff}.cls-5{fill:#1b1b1f}</style></defs><path d="M318.3 149.69l-.46-.44c138.33-2.73 187.2-20.33 176.55-45.72-9.39-22.34-40.85-48.95-174.48-53.89 21-21.11 12.89-42.94.61-44.9-15.88-2.54-24.08 36.39-24.08 36.39a38.53 38.53 0 00-2.1 7.38q-11.79-.16-24.31-.17-27.07 0-50.84.8c-5.87-21.78-29.67-46.26-42.84-28.58C165 35.8 188.64 50.42 188.64 50.42l-7.11.56C71.11 57.9 26.9 71 26.9 103.53c0 24.14 45 39 148.92 44.14C128.91 159.1-7.73 286.07 5 332.84s101.44 41.41 139.7-18.47c0 23 17.21 57.53 55.69 57.53s51.45-49.19 51.45-49.19 4.24 43.72 63.89 43.72c41.33 0 43.48-30.54 38-48.58 8.91 17.67 30.73 46.08 78.87 46.08 69.86 0 54.19-81.67 9.22-134-35.72-41.67-123.52-80.24-123.52-80.24z" fill="#4390e6"/><path class="cls-3" d="M289.13 101.1s15-20.42 38.21-20 40.83 15.83 40.83 15.83-21.69 18.48-40.12 18.19-38.92-14.02-38.92-14.02zM144.39 102.91s14.05-21 37.3-21.69 41.48 14 41.48 14-20.87 19.41-39.3 19.92-39.48-12.23-39.48-12.23z"/><g clip-path="url(#clip-path)"><circle class="cls-5" cx="197.26" cy="92.3" r="13.48"/></g><g clip-path="url(#clip-path-2)"><circle class="cls-5" cx="340.2" cy="91.59" r="13.7"/></g></svg>