<svg id="Слой_1" data-name="Слой 1" xmlns="http://www.w3.org/2000/svg" viewBox="0 0 386.43 394.49"><defs><clipPath id="clip-path"><path class="cls-1" d="M288.09 116.52s-12 18-32 18.61-35.58-12-35.58-12 17.9-16.65 33.71-17.09 33.87 10.48 33.87 10.48z"/></clipPath><clipPath id="clip-path-2"><path class="cls-1" d="M163.94 118.07s-12.82 17.51-32.77 17.2-35-13.57-35-13.57 18.61-15.86 34.42-15.61 33.35 11.98 33.35 11.98z"/></clipPath><style>.cls-1{fill:none}.cls-3{fill:#fff}.cls-5{fill:#1b1b1f}</style></defs><path d="M292.81 191.84c58-28.52 118.08-96.56 58.68-146.67-24.66-20.8-49.7-24.77-71.9-21.06a15.34 15.34 0 10-28.68 9.16 161.33 161.33 0 00-45.07 32.19A298.45 298.45 0 00145 31.85c.11-.29.23-.56.32-.85 3.66-10.89-.2-22-8.6-24.83s-18.19 3.72-21.85 14.61c-.17.51-.31 1-.45 1.54-33.73-7.25-69.2-3-91.84 32.66C-32 141 83.9 184.88 131.32 198.77c-57.56 50.4-132.87 129-103.45 173.92C73.63 442.64 205 283 205 283s47.86 85.18 123.15 66.92c61.85-15.04 88.79-92.21-35.34-158.08z" fill="#4390e6"/><path class="cls-3" d="M163.94 118.07s-12.82 17.51-32.77 17.2-35-13.57-35-13.57 18.61-15.86 34.42-15.61 33.35 11.98 33.35 11.98zM288.09 116.52s-12 18-32 18.61-35.58-12-35.58-12 17.9-16.65 33.71-17.09 33.87 10.48 33.87 10.48z"/><g clip-path="url(#clip-path)"><circle class="cls-5" cx="254.31" cy="114.98" r="11.56"/></g><g clip-path="url(#clip-path-2)"><circle class="cls-5" cx="137.63" cy="113.69" r="11.75"/></g></svg>