<svg id="Слой_1" data-name="Слой 1" xmlns="http://www.w3.org/2000/svg" viewBox="0 0 381.12 390.41"><defs><clipPath id="clip-path"><path class="cls-1" d="M288 166s-12.23 18.31-32.46 18.87-36.09-12.21-36.09-12.21 18.16-16.89 34.19-17.34S288 166 288 166z"/></clipPath><clipPath id="clip-path-2"><path class="cls-1" d="M162.05 167.58S149 185.34 128.81 185s-35.53-13.77-35.53-13.77 18.87-16.09 34.91-15.84 33.86 12.19 33.86 12.19z"/></clipPath><style>.cls-1{fill:none}.cls-2{fill:#4390e6}.cls-3{fill:#fff}.cls-5{fill:#1b1b1f}</style></defs><path class="cls-2" d="M93.28 221.11c-2.35-2.69-15.94-20.22-20.51-26.53C58 174.2 6.24 78.3 11.69 59.35c6.17-21.45 150.36 56.44 150.36 56.44S169.69 5.52 184 5.52s74.14 91.76 74.14 91.76S361.9 27.45 369.5 31.74c26.67 15-101.33 210.9-101.33 210.9S211 355.82 93.28 221.11z"/><path class="cls-2" d="M169.52 216.36S9.91 301 7.69 342.64s34.53 38.05 66.92 5.66c1.28 16.83 3.6 33.67 26 36 40.79 4.22 73-31.62 73-31.62s12.62 36.24 51.81 36.24 39.19-36.24 39.19-36.24 53.17 36.49 75.7 16.11C373.16 339 355.36 280 261.82 240.62c-81.68-34.43-92.3-24.26-92.3-24.26z"/><path class="cls-3" d="M162.05 167.58S149 185.34 128.81 185s-35.53-13.77-35.53-13.77 18.87-16.09 34.91-15.84 33.86 12.19 33.86 12.19zM288 166s-12.23 18.31-32.46 18.87-36.09-12.21-36.09-12.21 18.16-16.89 34.19-17.34S288 166 288 166z"/><g clip-path="url(#clip-path)"><circle class="cls-5" cx="246.19" cy="173.3" r="11.73"/></g><g clip-path="url(#clip-path-2)"><circle class="cls-5" cx="120.73" cy="173.95" r="11.92"/></g></svg>