<svg id="Слой_1" data-name="Слой 1" xmlns="http://www.w3.org/2000/svg" viewBox="0 0 337.07 394.49"><defs><clipPath id="clip-path"><path class="cls-1" d="M269.42 178.24s-11.42 17.12-30.35 17.64-33.75-11.41-33.75-11.41 17-15.8 32-16.21 32.1 9.98 32.1 9.98z"/></clipPath><clipPath id="clip-path-2"><path class="cls-1" d="M151.66 179.71s-12.16 16.6-31.08 16.29-33.22-12.88-33.22-12.88 17.65-15 32.64-14.8 31.66 11.39 31.66 11.39z"/></clipPath><style>.cls-1{fill:none}.cls-3{fill:#fff}.cls-5{fill:#1b1b1f}</style></defs><path d="M330.91 182.07a122.83 122.83 0 00-.63-13.83c-1.12-46.61-42.47-105.83-53.45-121-8-11-13.7-12.62-18.39-3.24-4.11 8.22-30.87 50.46-75.28 18-13.94-13.21-21.83-28.62-31.5-48.6-8.08-16.71-11.88-2.18-14.35 1.44C87.36 88 12.93 105.32 2.85 168.46c-12.71 79.59 103.89 90.44 103.89 90.44C67.47 285.61 7.4 336.54 67 367.06c72.63 37.19 222.8 19.6 228.08-24.32 4-33.61-32.79-67.51-57.72-82.88 70.4-1.39 93.55-45.21 93.55-77.79z" fill="#4390e6"/><path class="cls-3" d="M151.66 179.71s-12.16 16.6-31.08 16.29-33.22-12.88-33.22-12.88 17.65-15 32.64-14.8 31.66 11.39 31.66 11.39zM269.42 178.24s-11.42 17.12-30.35 17.64-33.75-11.41-33.75-11.41 17-15.8 32-16.21 32.1 9.98 32.1 9.98z"/><g clip-path="url(#clip-path)"><circle class="cls-5" cx="224.08" cy="182.18" r="10.97"/></g><g clip-path="url(#clip-path-2)"><circle class="cls-5" cx="131.77" cy="182.18" r="11.14"/></g></svg>