<svg id="Слой_1" data-name="Слой 1" xmlns="http://www.w3.org/2000/svg" viewBox="0 0 409.32 394.49"><defs><clipPath id="clip-path"><path class="cls-1" d="M118.32 141.9s11.74-17.59 31.17-18.13 34.67 11.73 34.67 11.73-17.44 16.23-32.84 16.66-33-10.26-33-10.26z"/></clipPath><clipPath id="clip-path-2"><path class="cls-1" d="M239.29 140.39s12.5-17.06 31.94-16.75 34.12 13.22 34.12 13.22-18.13 15.45-33.53 15.21-32.53-11.68-32.53-11.68z"/></clipPath><style>.cls-1{fill:none}.cls-3{fill:#fff}.cls-5{fill:#1b1b1f}</style></defs><path d="M282.54 196.27c46.67-8.69 93.95-41.69 96.62-61 4.74-34.34-53.8-21.56-53.8-21.56s45.79-32.91 20.52-59.44c-22.22-23.34-79.45 21.82-79.45 21.82S270 8.9 240.33 5.1 191.58 71 191.58 71s-4.65-69.7-60.42-58.3S113 119.16 113 119.16s-50.49-20.1-67.25 16.23c-18.91 41 53 63.81 96.76 63.68C72.85 230.91 6.08 325.6 4.34 353.8c-5.3 85.64 100.73-17.1 197.5-20.9 91.14-3.58 185.68 97.78 189.48 20.9 2.52-50.93-50.48-130.86-108.78-157.53z" fill="#4390e6"/><path class="cls-3" d="M239.29 140.39s12.5-17.06 31.94-16.75 34.12 13.22 34.12 13.22-18.13 15.45-33.53 15.21-32.53-11.68-32.53-11.68zM118.32 141.9s11.74-17.59 31.17-18.13 34.67 11.73 34.67 11.73-17.44 16.23-32.84 16.66-33-10.26-33-10.26z"/><g clip-path="url(#clip-path)"><circle class="cls-5" cx="151.24" cy="143.41" r="11.27"/></g><g clip-path="url(#clip-path-2)"><circle class="cls-5" cx="264.93" cy="144.67" r="11.45"/></g></svg>