<svg width="32" height="32" id="Слой_1" data-name="Слой 1" xmlns="http://www.w3.org/2000/svg" viewBox="0 0 32 32"><defs><clipPath id="clip-path"><path class="cls-1" d="M9.27 10.56a3.29 3.29 0 012.38-1.38 4.46 4.46 0 012.64.9 4.92 4.92 0 01-2.5 1.26 5.48 5.48 0 01-2.52-.78z"/></clipPath><clipPath id="clip-path-2"><path class="cls-1" d="M18.49 10.45a3.31 3.31 0 012.44-1.28 4.44 4.44 0 012.6 1A4.9 4.9 0 0121 11.34a5.62 5.62 0 01-2.51-.89z"/></clipPath><style>.cls-1{fill:none}.cls-3{fill:#fff}.cls-5{fill:#1b1b1f}</style></defs><path d="M20.35 13.54c8.81-.18 11.93-1.3 11.25-2.92C31 9.18 29 7.48 20.45 7.17c1.34-1.34.82-2.73 0-2.86C19.48 4.15 19 6.63 19 6.63a2.26 2.26 0 00-.14.47h-4.82c-.38-1.39-1.89-2.95-2.73-1.82-.72 1 .78 1.9.78 1.9h-.45c-7 .44-9.85 1.27-9.85 3.34 0 1.54 2.86 2.49 9.48 2.81C8.29 14.14-.42 22.23.4 25.21S6.86 27.85 9.3 24a3.62 3.62 0 003.54 3.67c2.45 0 3.28-3.14 3.28-3.14s.27 2.79 4.07 2.79c2.63 0 2.77-2 2.42-3.1a5.29 5.29 0 005 2.94c4.45 0 3.46-5.2.59-8.54-2.26-2.62-7.85-5.08-7.85-5.08z" fill="#4390e6"/><path class="cls-3" d="M18.49 10.45a3.31 3.31 0 012.44-1.28 4.44 4.44 0 012.6 1A4.9 4.9 0 0121 11.34a5.62 5.62 0 01-2.51-.89zM9.27 10.56a3.29 3.29 0 012.38-1.38 4.46 4.46 0 012.64.9 4.92 4.92 0 01-2.5 1.26 5.48 5.48 0 01-2.52-.78z"/><g clip-path="url(#clip-path)"><circle class="cls-5" cx="12.64" cy="9.89" r=".86"/></g><g clip-path="url(#clip-path-2)"><circle class="cls-5" cx="21.75" cy="9.84" r=".87"/></g></svg>