<svg width="256" height="256" id="Слой_1" data-name="Слой 1" xmlns="http://www.w3.org/2000/svg" viewBox="0 0 256 256"><defs><clipPath id="clip-path"><path class="cls-1" d="M74.18 84.5s7.16-10.72 19-11 21.14 7.15 21.14 7.15-10.64 9.89-20 10.15-20.14-6.3-20.14-6.3z"/></clipPath><clipPath id="clip-path-2"><path class="cls-1" d="M147.94 83.58s7.62-10.4 19.47-10.22 20.81 8.07 20.81 8.07-11.05 9.42-20.45 9.27-19.83-7.12-19.83-7.12z"/></clipPath><style>.cls-1{fill:none}.cls-3{fill:#fff}.cls-5{fill:#1b1b1f}</style></defs><path d="M162.81 108.34l-.24-.22c70.5-1.39 95.4-10.36 90-23.3-4.77-11.38-20.81-24.95-88.92-27.46 10.71-10.76 6.57-21.89.32-22.89-8.13-1.29-12.3 18.53-12.3 18.53a19.09 19.09 0 00-1.08 3.76q-6-.09-12.38-.08-13.8 0-25.91.4c-3-11.1-15.12-23.58-21.83-14.56-5.78 7.76 6.26 15.22 6.26 15.22l-3.62.26c-56.27 3.53-78.8 10.22-78.8 26.78 0 12.3 22.91 19.88 75.89 22.49-23.91 5.83-93.54 70.53-87 94.37s51.69 21.1 71.19-9.42c0 11.71 8.77 29.33 28.38 29.33S129 196.51 129 196.51s2.16 22.29 32.56 22.29c21.06 0 22.15-15.57 19.37-24.76 4.54 9 15.66 23.48 40.19 23.48 35.6 0 27.61-41.62 4.7-68.29-18.27-21.23-63.01-40.89-63.01-40.89z" fill="#4390e6"/><path class="cls-3" d="M147.94 83.58s7.62-10.4 19.47-10.22 20.81 8.07 20.81 8.07-11.05 9.42-20.45 9.27-19.83-7.12-19.83-7.12zM74.18 84.5s7.16-10.72 19-11 21.14 7.15 21.14 7.15-10.64 9.89-20 10.15-20.14-6.3-20.14-6.3z"/><g clip-path="url(#clip-path)"><circle class="cls-5" cx="101.12" cy="79.1" r="6.87"/></g><g clip-path="url(#clip-path-2)"><circle class="cls-5" cx="173.96" cy="78.73" r="6.98"/></g></svg>