<svg width="1525" height="1527" viewBox="0 0 1525 1527" fill="none" xmlns="http://www.w3.org/2000/svg">
<path fill-rule="evenodd" clip-rule="evenodd" d="M447.682 5.29408C529.052 1.66116 555.066 0.75293 761.968 0.75293C968.869 0.75293 994.883 1.66116 1076.56 4.99133C1157.92 8.62425 1213.28 21.6422 1261.68 40.4123C1311.59 60.0906 1354.24 86.1265 1396.59 128.511C1438.94 170.895 1465.25 213.279 1484.61 263.534C1503.37 312.276 1516.37 367.678 1520 448.813C1523.63 530.251 1524.54 555.984 1524.54 763.363C1524.54 970.742 1523.63 996.475 1520 1077.91C1516.37 1159.35 1503.37 1214.75 1484.61 1263.19C1464.95 1313.14 1438.94 1355.83 1396.59 1398.21C1354.24 1440.6 1311.89 1466.94 1261.68 1486.31C1212.98 1505.08 1157.62 1518.1 1076.56 1521.73C995.186 1525.37 969.474 1526.28 762.27 1526.28C555.066 1526.28 529.354 1525.37 447.985 1521.73C366.616 1518.1 311.26 1505.08 262.862 1486.31C212.952 1466.63 170.301 1440.6 127.952 1398.21C85.6041 1355.83 59.2877 1313.45 39.9284 1263.19C21.1742 1214.45 8.16718 1159.05 4.53732 1077.91C0.907464 996.475 0 970.439 0 763.363C0 556.286 0.907464 530.251 4.53732 449.115C8.16718 367.678 21.1742 312.276 39.9284 263.837C59.5902 213.884 85.6041 171.197 127.952 128.813C170.301 86.4292 212.649 60.0906 262.862 40.715C311.26 21.9449 366.616 8.92699 447.682 5.29408ZM1069.95 142.748C989.489 139.115 965.592 138.207 762.018 138.207C558.443 138.207 534.547 138.812 454.085 142.748C379.673 146.078 339.442 158.793 312.52 169.086C276.827 182.71 251.418 199.361 224.799 226.002C198.18 252.643 181.845 278.074 167.931 313.798C157.344 340.742 144.942 381.006 141.614 455.481C137.985 536.011 137.077 559.928 137.077 763.674C137.077 967.42 137.985 991.336 141.614 1071.87C144.942 1146.34 157.646 1186.61 167.931 1213.55C181.543 1249.27 198.18 1274.7 224.799 1301.35C251.418 1327.99 276.827 1344.33 312.52 1358.26C339.442 1368.86 379.673 1381.27 454.085 1384.6C534.547 1388.23 558.443 1389.14 762.018 1389.14C965.592 1389.14 989.489 1388.23 1069.95 1384.6C1144.36 1381.27 1184.59 1368.55 1211.52 1358.26C1247.21 1344.64 1272.62 1327.99 1299.24 1301.35C1325.86 1274.7 1342.19 1249.27 1356.1 1213.55C1366.69 1186.61 1379.09 1146.34 1382.42 1071.87C1386.05 991.336 1386.96 967.42 1386.96 763.674C1386.96 559.928 1386.05 536.011 1382.42 455.481C1379.09 381.006 1366.39 340.742 1356.1 313.798C1342.49 278.074 1325.86 252.643 1299.24 226.002C1272.62 199.361 1247.21 183.013 1211.52 169.086C1184.59 158.49 1144.36 146.078 1069.95 142.748Z" fill="#10202F"/>
<path fill-rule="evenodd" clip-rule="evenodd" d="M370.598 763.351C370.598 546.89 546.041 371.602 762.017 371.602C977.994 371.602 1153.44 547.193 1153.44 763.351C1153.44 979.51 977.994 1155.1 762.017 1155.1C546.041 1155.1 370.598 979.812 370.598 763.351ZM507.925 763.359C507.925 903.832 621.661 1017.66 762.015 1017.66C902.37 1017.66 1016.11 903.832 1016.11 763.359C1016.11 622.886 902.37 509.055 762.015 509.055C621.661 509.055 507.925 622.886 507.925 763.359Z" fill="#10202F"/>
<path d="M1168.78 447.606C1219.23 447.606 1260.13 406.672 1260.13 356.177C1260.13 305.683 1219.23 264.749 1168.78 264.749C1118.33 264.749 1077.43 305.683 1077.43 356.177C1077.43 406.672 1118.33 447.606 1168.78 447.606Z" fill="#10202F"/>
</svg>
