<svg width="32" height="32" viewBox="0 0 1670 1670" fill="none" xmlns="http://www.w3.org/2000/svg">
<path fill-rule="evenodd" clip-rule="evenodd" d="M835 0C1295.83 0 1670 373.671 1670 835C1670 1295.83 1296.33 1670 835 1670C374.172 1670 0 1296.33 0 835C0 374.172 373.671 0 835 0ZM1015.82 372.669C1031.35 503.905 1104.48 582.046 1231.21 590.06V737.324C1157.58 744.337 1092.96 720.294 1017.83 675.213V950.708C1017.83 1301.34 635.642 1410.53 482.366 1159.58C383.689 998.293 444.298 714.283 760.867 703.263V859.043C736.824 863.05 711.278 869.061 687.735 877.076C617.109 900.618 577.537 945.699 588.557 1024.34C610.096 1175.11 886.593 1219.69 863.551 925.162V373.17H1016.33L1015.82 372.669Z" fill="#10202F"/>
</svg>
