<svg width="32" height="32" viewBox="0 0 1528 1529" fill="none" xmlns="http://www.w3.org/2000/svg">
<path fill-rule="evenodd" clip-rule="evenodd" d="M998.418 0H529.476C101.499 0 0.164062 101.42 0.164062 529.758V999.095C0.164062 1427.43 101.499 1528.85 529.476 1528.85H998.418C1426.39 1528.85 1527.73 1427.43 1527.73 999.095V529.758C1527.73 101.42 1425.32 0 998.418 0ZM1233.45 1090.8H1122.42C1080.37 1090.8 1067.44 1057.36 991.976 980.752C926.216 917.095 897.109 908.464 880.939 908.464C858.301 908.464 851.832 914.937 851.832 946.226V1046.57C851.832 1073.54 843.208 1089.72 772.058 1089.72C654.553 1089.72 524.112 1018.52 432.48 885.806C294.492 691.597 256.761 545.941 256.761 515.731C256.761 499.547 263.229 484.442 294.492 484.442H405.529C433.558 484.442 444.338 497.389 455.118 527.599C510.098 686.203 601.73 825.385 639.461 825.385C653.475 825.385 659.943 818.912 659.943 783.307V619.309C655.631 543.783 615.744 537.31 615.744 510.336C615.744 497.389 626.525 484.442 643.773 484.442H818.414C842.13 484.442 850.754 497.389 850.754 525.441V746.623C850.754 770.36 861.535 778.991 868.003 778.991C882.017 778.991 893.875 770.36 919.748 744.465C999.522 654.914 1056.66 516.81 1056.66 516.81C1064.2 500.626 1077.14 485.521 1105.17 485.521H1216.21C1249.62 485.521 1257.17 502.784 1249.62 526.52C1235.61 591.256 1099.78 783.307 1099.78 783.307C1087.92 802.728 1083.61 811.359 1099.78 832.938C1111.64 849.122 1150.45 882.569 1176.32 912.779C1223.75 966.726 1260.4 1012.04 1270.11 1043.33C1280.89 1074.62 1264.72 1090.8 1233.45 1090.8Z" fill="#10202F"/>
</svg>
